<svg width="49" height="50" viewBox="0 0 49 50" fill="none" xmlns="http://www.w3.org/2000/svg">
<path d="M19.3212 13.888V19.9724H13.2369V13.888H19.3212ZM22.3634 10.8458H10.1947V23.0145H22.3634V10.8458ZM19.3212 30.1129V36.1973H13.2369V30.1129H19.3212ZM22.3634 27.0708H10.1947V39.2395H22.3634V27.0708ZM35.5462 13.888V19.9724H29.4618V13.888H35.5462ZM38.5883 10.8458H26.4196V23.0145H38.5883V10.8458ZM26.4196 27.0708H29.4618V30.1129H26.4196V27.0708ZM29.4618 30.1129H32.504V33.1551H29.4618V30.1129ZM32.504 27.0708H35.5462V30.1129H32.504V27.0708ZM26.4196 33.1551H29.4618V36.1973H26.4196V33.1551ZM29.4618 36.1973H32.504V39.2395H29.4618V36.1973ZM32.504 33.1551H35.5462V36.1973H32.504V33.1551ZM35.5462 30.1129H38.5883V33.1551H35.5462V30.1129ZM35.5462 36.1973H38.5883V39.2395H35.5462V36.1973ZM44.6727 14.9021H40.6165V8.81771H34.5321V4.76147H44.6727V14.9021ZM44.6727 45.3238V35.1832H40.6165V41.2676H34.5321V45.3238H44.6727ZM4.11035 45.3238H14.2509V41.2676H8.16659V35.1832H4.11035V45.3238ZM4.11035 4.76147V14.9021H8.16659V8.81771H14.2509V4.76147H4.11035Z" fill="white"/>
</svg>
